<svg width="26" height="28" viewBox="0 0 26 28" fill="none" xmlns="http://www.w3.org/2000/svg">
<path d="M13.5 3.99994L14.2333 3.32004C14.0441 3.11594 13.7783 2.99994 13.5 2.99994C13.2217 2.99994 12.9559 3.11594 12.7667 3.32004L13.5 3.99994ZM13.5 3.99994C14.2333 3.32004 14.2334 3.32016 14.2336 3.3203L14.234 3.32075L14.2353 3.32221L14.24 3.32731L14.2574 3.34619L14.3229 3.41765C14.3797 3.4799 14.4622 3.57089 14.5669 3.6876C14.7761 3.92098 15.0738 4.25753 15.4306 4.67314C16.1433 5.50332 17.096 6.65389 18.0509 7.93091C19.0029 9.20416 19.9725 10.6233 20.7084 11.9883C21.4246 13.3169 22 14.737 22 15.971C22 20.4654 18.1323 23.9999 13.5 23.9999C8.86768 23.9999 5 20.4654 5 15.971C5 14.737 5.57542 13.3169 6.29164 11.9883C7.02754 10.6233 7.99706 9.20416 8.94914 7.93091C9.90403 6.65389 10.8567 5.50332 11.5694 4.67314C11.9262 4.25753 12.2239 3.92098 12.4331 3.6876C12.5378 3.57089 12.6203 3.4799 12.6771 3.41765L12.7426 3.34619L12.76 3.32731L12.7647 3.32221L12.766 3.32075L12.7664 3.3203C12.7666 3.32016 12.7667 3.32004 13.5 3.99994Z" stroke="#FDD663" stroke-width="2" stroke-linejoin="round"/>
</svg>
